<mxfile host="app.diagrams.net" modified="2024-04-25T10:34:01.315Z" agent="Mozilla/5.0 (Macintosh; Intel Mac OS X 10_15_7) AppleWebKit/537.36 (KHTML, like Gecko) Chrome/124.0.0.0 Safari/537.36" etag="WohoG26JoyABQKfTlCl5" version="24.3.0" type="device">
  <diagram name="第 1 页" id="DkEwYdfwHbRlVwGyjE1p">
    <mxGraphModel dx="1526" dy="820" grid="0" gridSize="10" guides="1" tooltips="1" connect="1" arrows="1" fold="1" page="1" pageScale="1" pageWidth="827" pageHeight="1169" math="0" shadow="0">
      <root>
        <mxCell id="0" />
        <mxCell id="1" parent="0" />
        <mxCell id="51Ylhp4Qm0EKD_5LjUa0-1" value="&lt;font style=&quot;font-size: 36px;&quot;&gt;Consistency 一致性&lt;/font&gt;" style="rounded=1;whiteSpace=wrap;html=1;fillColor=#dae8fc;strokeColor=#6c8ebf;" vertex="1" parent="1">
          <mxGeometry x="290" y="540" width="350" height="90" as="geometry" />
        </mxCell>
        <mxCell id="51Ylhp4Qm0EKD_5LjUa0-2" value="&lt;font style=&quot;font-size: 36px;&quot;&gt;Lock 锁实现&lt;/font&gt;" style="rounded=1;whiteSpace=wrap;html=1;fillColor=#fff2cc;strokeColor=#d6b656;" vertex="1" parent="1">
          <mxGeometry x="290" y="440" width="350" height="90" as="geometry" />
        </mxCell>
        <mxCell id="51Ylhp4Qm0EKD_5LjUa0-3" value="&lt;span style=&quot;font-size: 36px;&quot;&gt;Usage 锁使用&lt;/span&gt;" style="rounded=1;whiteSpace=wrap;html=1;fillColor=#f8cecc;strokeColor=#b85450;" vertex="1" parent="1">
          <mxGeometry x="290" y="340" width="350" height="90" as="geometry" />
        </mxCell>
        <mxCell id="51Ylhp4Qm0EKD_5LjUa0-4" value="&lt;font style=&quot;font-size: 24px;&quot;&gt;&amp;nbsp;API&lt;/font&gt;" style="rounded=1;whiteSpace=wrap;html=1;fillColor=#bac8d3;strokeColor=#23445d;align=center;" vertex="1" parent="1">
          <mxGeometry x="334" y="420" width="80" height="30" as="geometry" />
        </mxCell>
        <mxCell id="51Ylhp4Qm0EKD_5LjUa0-5" value="&lt;font style=&quot;font-size: 24px;&quot;&gt;Event&lt;/font&gt;" style="rounded=1;whiteSpace=wrap;html=1;fillColor=#bac8d3;strokeColor=#23445d;align=center;" vertex="1" parent="1">
          <mxGeometry x="510" y="420" width="80" height="30" as="geometry" />
        </mxCell>
      </root>
    </mxGraphModel>
  </diagram>
</mxfile>
